<?xml version="1.0" encoding="UTF-8" standalone="no"?>
<!-- Created with Inkscape (http://www.inkscape.org/) -->

<svg
   width="22.516665mm"
   height="19.000004mm"
   viewBox="0 0 22.516665 19.000004"
   version="1.1"
   id="svg1"
   xml:space="preserve"
   xmlns="http://www.w3.org/2000/svg"
   xmlns:svg="http://www.w3.org/2000/svg"><defs
     id="defs1" /><g
     id="layer1"
     transform="translate(-180.13327,-188.49999)"><g
       id="g62"><path
         style="fill:#7cb84f;fill-opacity:1;stroke-width:0.499999;paint-order:markers fill stroke"
         d="m 157.61662,207.99999 11.25833,-6.5 11.25833,6.5 -11.25833,6.5 z"
         id="path30-2-0-0" /><path
         style="fill:#8bc652;fill-opacity:1;stroke-width:0.499999;paint-order:markers fill stroke"
         d="m 157.61662,207.99999 v 4 l 11.25833,6.5 v -4 z"
         id="path31-9-6-4" /><path
         style="fill:#6aa341;fill-opacity:1;stroke-width:0.499999;paint-order:markers fill stroke"
         d="m 168.87495,218.49999 11.25833,-6.5 v -4 l -11.25833,6.5 z"
         id="path32-1-3-8" /><path
         style="fill:#a08665;fill-opacity:1;stroke-width:0.499999;paint-order:markers fill stroke"
         d="m 157.61662,211.99999 v 2 l 11.25833,6.5 v -2 z"
         id="path33-2-2-7" /><path
         style="fill:#746e58;fill-opacity:1;stroke-width:0.499999;paint-order:markers fill stroke"
         d="m 180.13328,211.99999 v 2 l -11.25833,6.5 v -2 z"
         id="path34-7-0-1" /><path
         style="fill:#b3bcab;fill-opacity:1;stroke-width:0.499999;paint-order:markers fill stroke"
         d="m 159.34866,206.86785 1e-5,0.13214 1.62038,0.93553 0.11167,-0.0677 z"
         id="path55" /><path
         style="fill:#647275;fill-opacity:1;stroke-width:0.499999;paint-order:markers fill stroke"
         d="m 171.47302,202.99999 -11.25833,6.5 6.06218,3.5 11.25833,-6.5 z"
         id="path35-6-7" /><path
         style="fill:#b3bcab;fill-opacity:1;stroke-width:0.499999;paint-order:markers fill stroke"
         d="m 159.34867,208.99999 v -0.13214 l 0.86603,0.50793 -1e-5,0.12421 z"
         id="path38-76-6" /><path
         style="fill:#b3bcab;fill-opacity:1;stroke-width:0.499999;paint-order:markers fill stroke"
         d="m 159.34867,209.1242 v -0.13214 l 0.86603,0.50793 -1e-5,0.12421 z"
         id="path38-4-5-1" /><path
         style="fill:#b3bcab;fill-opacity:1;stroke-width:0.499999;paint-order:markers fill stroke"
         d="m 166.27689,213.00397 v -0.13214 l 0.86603,0.50793 -1e-5,0.12421 z"
         id="path38-7-6-0" /><path
         style="fill:#b3bcab;fill-opacity:1;stroke-width:0.499999;paint-order:markers fill stroke"
         d="m 166.27688,213.12816 v -0.13214 l 0.86603,0.50795 -2e-5,0.12419 z"
         id="path38-7-1-9-6" /><path
         style="fill:#b3bcab;fill-opacity:1;stroke-width:0.499999;paint-order:markers fill stroke"
         d="m 160.21469,209.49999 v 0.28325"
         id="path39-3-1" /><path
         style="fill:#b3bcab;fill-opacity:1;stroke-width:0.499999;paint-order:markers fill stroke"
         d="m 166.27687,212.99999 v 0.28325"
         id="path39-6-7-5" /><path
         style="fill:#586466;fill-opacity:1;stroke-width:0.499999;paint-order:markers fill stroke"
         d="m 160.21469,209.78324 6.06218,3.5 v -0.28325 l -6.06218,-3.5 z"
         id="path40-4-9" /><path
         style="fill:#8d8d8d;fill-opacity:1;stroke-width:0.499999;paint-order:markers fill stroke"
         d="m 159.34867,209.1242 v 0.87579 l 7.79423,4.5 -1e-5,-0.87183 -0.86602,-0.48655 v 0.14163 l -6.06218,-3.50001 v -0.15904 z"
         id="path41-5-4" /><path
         style="fill:#647275;fill-opacity:1;stroke-width:0.499999;paint-order:markers fill stroke"
         d="m 171.47302,212.99999 -11.25833,-6.5 6.06218,-3.5 11.25833,6.5 z"
         id="path42" /><path
         style="fill:#80a294;fill-opacity:1;stroke-width:0.499999;paint-order:markers fill stroke"
         d="m 177.5352,209.36785 0.86603,-0.5 v 0.13214 l -0.86603,0.5 z"
         id="path44" /><path
         style="fill:#80a294;fill-opacity:1;stroke-width:0.499999;paint-order:markers fill stroke"
         d="m 170.607,213.36785 0.86603,-0.5 v 0.13214 l -0.86603,0.5 z"
         id="path44-8-6" /><path
         style="fill:#80a294;fill-opacity:1;stroke-width:0.499999;paint-order:markers fill stroke"
         d="m 170.607,213.49999 0.86603,-0.5 v 0.13214 l -0.86603,0.5 z"
         id="path44-8-6-8" /><path
         style="fill:#80a294;fill-opacity:1;stroke-width:0.499999;paint-order:markers fill stroke"
         d="m 177.5352,209.49999 0.86603,-0.5 v 0.13214 l -0.86603,0.5 z"
         id="path44-8-6-88" /><path
         style="fill:#c2d6d5;fill-opacity:1;stroke-width:0.499999;paint-order:markers fill stroke"
         d="m 177.5352,206.36785 -2.59807,1.5 2.59807,1.5 c 0,0 0.86603,-0.5 0.86603,-0.5 l -1.73205,-1 1.73205,-0.99207 z"
         id="path45" /><path
         style="fill:#b3bcab;fill-opacity:1;stroke-width:0.499999;paint-order:markers fill stroke"
         d="m 174.93712,207.99999 c 0,0 1e-5,-0.13214 1e-5,-0.13214 l 2.59807,1.5 v 0.13214 z"
         id="path46" /><path
         style="fill:#80a294;fill-opacity:1;stroke-width:0.499999;paint-order:markers fill stroke"
         d="m 178.40123,206.87578 v 0.12421 l -1.60176,0.94308 -0.13029,-0.0752 z"
         id="path47" /><path
         style="fill:#c2d6d5;fill-opacity:1;stroke-width:0.499999;paint-order:markers fill stroke"
         d="m 166.27687,202.86785 2.59808,1.50793 2.59808,-1.5 -0.86603,-0.50793 -1.73205,1 -1.73205,-1 z"
         id="path48" /><path
         style="fill:#c2d6d5;fill-opacity:1;stroke-width:0.499999;paint-order:markers fill stroke"
         d="m 160.21469,206.36785 2.59809,1.50793 -2.59808,1.5 -0.86603,-0.50793 1.73205,-1 -1.73206,-1 z"
         id="path49" /><path
         style="fill:#c2d6d5;fill-opacity:1;stroke-width:0.499999;paint-order:markers fill stroke"
         d="m 166.27689,212.87183 2.59806,-1.50398 2.59808,1.5 -0.86603,0.5 -1.73205,-1 -1.73203,1.01191"
         id="path50" /><path
         style="fill:#80a294;fill-opacity:1;stroke-width:0.499999;paint-order:markers fill stroke"
         d="m 162.81278,207.87578 -1e-5,0.12421 -2.59808,1.5 1e-5,-0.12421 z"
         id="path51" /><path
         style="fill:#80a294;fill-opacity:1;stroke-width:0.499999;paint-order:markers fill stroke"
         d="m 168.87495,204.37578 v 0.12421 l 2.59807,-1.5 1e-5,-0.12421 z"
         id="path52" /><path
         style="fill:#80a294;fill-opacity:1;stroke-width:0.499999;paint-order:markers fill stroke"
         d="m 167.14292,213.37976 -2e-5,0.12023 1.73205,-1 v -0.13214 z"
         id="path53" /><path
         style="fill:#b3bcab;fill-opacity:1;stroke-width:0.499999;paint-order:markers fill stroke"
         d="m 168.87495,204.49999 v -0.12421 l -2.59808,-1.50793 v 0.13214 z"
         id="path54" /><path
         style="fill:#b3bcab;fill-opacity:1;stroke-width:0.499999;paint-order:markers fill stroke"
         d="m 168.87495,212.36785 v 0.13214 l 1.73205,1 v -0.13214 z"
         id="path56" /><path
         style="fill:#4d585a;fill-opacity:1;stroke-width:0.499999;paint-order:markers fill stroke"
         d="m 171.47301,213.27926 2e-5,-0.27927 6.06217,-3.5 v 0.27927 z"
         id="path57" /><path
         style="fill:#b3bcab;fill-opacity:1;stroke-width:0.499999;paint-order:markers fill stroke"
         d="m 177.53521,209.49999 -1e-5,0.27927"
         id="path58" /><path
         style="fill:#6a6a6a;fill-opacity:1;stroke-width:0.499999;paint-order:markers fill stroke"
         d="m 170.607,213.63213 v 0.86786 l 7.79423,-4.5 v -0.86786 l -0.86603,0.5 v 0.14713 l -6.06219,3.5 2e-5,-0.14713 z"
         id="path59" /></g><g
       id="g84-3-1"
       transform="translate(101.32497,-32.499995)"><path
         style="fill:#a08665;fill-opacity:1;stroke-width:0.499999;paint-order:markers fill stroke"
         d="m 78.80831,231.49999 v 2 l 11.25833,6.5 v -2 z"
         id="path33-2-2-1-7-4-1" /><path
         style="fill:#746e58;fill-opacity:1;stroke-width:0.499999;paint-order:markers fill stroke"
         d="m 101.32497,231.49999 v 2 l -11.25833,6.5 v -2 z"
         id="path34-7-0-5-4-6-3" /><path
         style="fill:#d9e0af;fill-opacity:1;stroke-width:0.499999;paint-order:markers fill stroke"
         d="m 86.315176,233.16765 h 7.502922 l -3.751459,2.83234 z"
         id="path77-3-5" /><path
         style="fill:#71ac37;fill-opacity:1;stroke-width:0.499999;paint-order:markers fill stroke"
         d="m 78.808309,227.49999 7.506867,5.66766 h 7.502922 l 7.506872,-5.66766 -11.258331,-6.5 z"
         id="path78-6-9" /><path
         style="fill:#8bc652;fill-opacity:1;stroke-width:0.499999;paint-order:markers fill stroke"
         d="m 86.315176,233.16765 v 2.66643 l -7.506864,-4.33409 v -4 z"
         id="path79-3-3" /><path
         style="fill:#6aa341;fill-opacity:1;stroke-width:0.499999;paint-order:markers fill stroke"
         d="m 93.818098,233.16765 v 2.66643 l 7.506872,-4.33409 v -4 z"
         id="path80-3-4" /><path
         style="fill:#9dbb99;fill-opacity:1;stroke-width:0.499999;paint-order:markers fill stroke"
         d="m 90.066639,235.99999 3.751459,-2.83234 v 2.66643 l -3.751459,2.1659 z"
         id="path81-4-1" /><path
         style="fill:#c2cc8f;fill-opacity:1;stroke-width:0.499999;paint-order:markers fill stroke"
         d="m 86.315176,233.16765 v 2.66643 l 3.751463,2.16591 v -2 z"
         id="path82-4-5" /><path
         style="fill:#7cb84f;fill-opacity:1;stroke-width:0.499999;paint-order:markers fill stroke"
         d="m 78.808309,227.49999 h 22.516661 l -11.258331,-6.5 z"
         id="path83-3-0" /></g></g></svg>
