<?xml version="1.0" encoding="UTF-8" standalone="no"?>
<!-- Created with Inkscape (http://www.inkscape.org/) -->

<svg
   width="22.516665mm"
   height="19.000004mm"
   viewBox="0 0 22.516665 19.000004"
   version="1.1"
   id="svg1"
   xml:space="preserve"
   xmlns="http://www.w3.org/2000/svg"
   xmlns:svg="http://www.w3.org/2000/svg"><defs
     id="defs1" /><g
     id="layer1"
     transform="translate(-168.87494,-169.00001)"><g
       id="g59"><path
         style="fill:#7cb84f;fill-opacity:1;stroke-width:0.499999;paint-order:markers fill stroke"
         d="m 168.87495,175.5 11.25833,-6.5 11.25833,6.5 -11.25833,6.5 z"
         id="path30-2-0" /><path
         style="fill:#8bc652;fill-opacity:1;stroke-width:0.499999;paint-order:markers fill stroke"
         d="m 168.87495,175.5 v 4 l 11.25833,6.5 v -4 z"
         id="path31-9-6" /><path
         style="fill:#6aa341;fill-opacity:1;stroke-width:0.499999;paint-order:markers fill stroke"
         d="m 180.13328,186 11.25833,-6.5 v -4 l -11.25833,6.5 z"
         id="path32-1-3" /><path
         style="fill:#a08665;fill-opacity:1;stroke-width:0.499999;paint-order:markers fill stroke"
         d="m 168.87495,179.5 v 2 l 11.25833,6.5 v -2 z"
         id="path33-2-2" /><path
         style="fill:#746e58;fill-opacity:1;stroke-width:0.499999;paint-order:markers fill stroke"
         d="m 191.39161,179.5 v 2 l -11.25833,6.5 v -2 z"
         id="path34-7-0" /><path
         style="fill:#647275;fill-opacity:1;stroke-width:0.499999;paint-order:markers fill stroke"
         d="m 182.73135,170.5 -11.25833,6.5 6.06218,3.5 11.25833,-6.5 z"
         id="path35-6" /><path
         style="fill:#c2d6d5;fill-opacity:1;stroke-width:0.499999;paint-order:markers fill stroke"
         d="m 170.607,176.36786 0.86603,0.50793 11.25834,-6.49998 -0.86603,-0.50795 z"
         id="path36-1" /><path
         style="fill:#80a294;fill-opacity:1;stroke-width:0.499999;paint-order:markers fill stroke"
         d="m 171.47303,176.87579 11.25834,-6.49998 -1e-5,0.12415 L 171.47302,177 Z"
         id="path37-5" /><path
         style="fill:#c2d6d5;fill-opacity:1;stroke-width:0.499999;paint-order:markers fill stroke"
         d="m 177.53522,180.37183 0.86603,0.50794 11.25831,-6.50398 -0.86603,-0.50794 z"
         id="path36-0-5" /><path
         style="fill:#80a294;fill-opacity:1;stroke-width:0.499999;paint-order:markers fill stroke"
         d="m 178.40125,180.87977 11.25831,-6.50398 V 174.5 l -11.25833,6.5 z"
         id="path37-6-4" /><path
         style="fill:#b3bcab;fill-opacity:1;stroke-width:0.499999;paint-order:markers fill stroke"
         d="m 170.607,176.5 v -0.13214 l 0.86603,0.50793 -1e-5,0.12421 z"
         id="path38-76" /><path
         style="fill:#b3bcab;fill-opacity:1;stroke-width:0.499999;paint-order:markers fill stroke"
         d="m 170.607,176.62421 v -0.13214 l 0.86603,0.50793 -1e-5,0.12421 z"
         id="path38-4-5" /><path
         style="fill:#b3bcab;fill-opacity:1;stroke-width:0.499999;paint-order:markers fill stroke"
         d="m 177.53522,180.50398 v -0.13214 l 0.86603,0.50793 -1e-5,0.12421 z"
         id="path38-7-6" /><path
         style="fill:#b3bcab;fill-opacity:1;stroke-width:0.499999;paint-order:markers fill stroke"
         d="m 177.53521,180.62817 v -0.13214 l 0.86603,0.50795 -2e-5,0.12419 z"
         id="path38-7-1-9" /><path
         style="fill:#b3bcab;fill-opacity:1;stroke-width:0.499999;paint-order:markers fill stroke"
         d="m 171.47302,177 v 0.28325"
         id="path39-3" /><path
         style="fill:#b3bcab;fill-opacity:1;stroke-width:0.499999;paint-order:markers fill stroke"
         d="m 177.5352,180.5 v 0.28325"
         id="path39-6-7" /><path
         style="fill:#586466;fill-opacity:1;stroke-width:0.499999;paint-order:markers fill stroke"
         d="m 171.47302,177.28325 6.06218,3.5 V 180.5 l -6.06218,-3.5 z"
         id="path40-4" /><path
         style="fill:#8d8d8d;fill-opacity:1;stroke-width:0.499999;paint-order:markers fill stroke"
         d="M 170.607,176.62421 V 177.5 l 7.79423,4.5 -1e-5,-0.87183 -0.86602,-0.48655 v 0.14163 l -6.06218,-3.50001 v -0.15904 z"
         id="path41-5" /></g></g></svg>
