<?xml version="1.0" encoding="UTF-8" standalone="no"?>
<!-- Created with Inkscape (http://www.inkscape.org/) -->

<svg
   width="22.516657mm"
   height="18.999987mm"
   viewBox="0 0 22.516657 18.999987"
   version="1.1"
   id="svg1"
   xml:space="preserve"
   xmlns="http://www.w3.org/2000/svg"
   xmlns:svg="http://www.w3.org/2000/svg"><defs
     id="defs1" /><g
     id="layer1"
     transform="translate(-78.808311,-221)"><g
       id="g87"><path
         style="fill:#7cb84f;fill-opacity:1;stroke-width:0.499999;paint-order:markers fill stroke"
         d="m 101.32497,214.49999 11.25833,-6.5 11.25833,6.5 -11.25833,6.5 z"
         id="path30-2-0-0-5-5" /><path
         style="fill:#647275;fill-opacity:1;stroke-width:0.499999;paint-order:markers fill stroke"
         d="m 121.24697,212.99802 -8.66026,5 -8.66025,-5 6.06217,-3.5 2.59808,1.5 2.59467,-1.49803 z"
         id="path66-9" /><path
         style="fill:#8bc652;fill-opacity:1;stroke-width:0.499999;paint-order:markers fill stroke"
         d="m 101.32497,214.49999 v 4 l 11.25833,6.5 v -4 z"
         id="path31-9-6-4-9-9" /><path
         style="fill:#6aa341;fill-opacity:1;stroke-width:0.499999;paint-order:markers fill stroke"
         d="m 112.5833,224.99999 11.25833,-6.5 v -4 l -11.25833,6.5 z"
         id="path32-1-3-8-3-0" /><path
         style="fill:#a08665;fill-opacity:1;stroke-width:0.499999;paint-order:markers fill stroke"
         d="m 101.32497,218.49999 v 2 l 11.25833,6.5 v -2 z"
         id="path33-2-2-7-5-7" /><path
         style="fill:#746e58;fill-opacity:1;stroke-width:0.499999;paint-order:markers fill stroke"
         d="m 123.84163,218.49999 v 2 l -11.25833,6.5 v -2 z"
         id="path34-7-0-1-7-6" /><path
         style="fill:#b3bcab;fill-opacity:1;stroke-width:0.499999;paint-order:markers fill stroke"
         d="m 109.98518,209.49999 v -0.13214 l 2.5981,1.50795 -2e-5,0.12419 z"
         id="path38-7-1-9-6-8-0" /><path
         style="fill:#80a294;fill-opacity:1;stroke-width:0.499999;paint-order:markers fill stroke"
         d="m 115.18138,209.49999 v -0.13214 l -2.5981,1.50795 2e-5,0.12419 z"
         id="path86" /><path
         style="fill:#c2d6d5;fill-opacity:1;stroke-width:0.499999;paint-order:markers fill stroke"
         d="m 115.18134,209.37182 -2.59806,1.50398 -2.59808,-1.5 0.86603,-0.5 1.73205,1 1.73203,-1.01191"
         id="path50-3-2" /><path
         style="fill:#b3bcab;fill-opacity:1;stroke-width:0.499999;paint-order:markers fill stroke"
         d="m 103.05702,213.49999 0.003,-0.13411 9.52809,5.50687 -1e-5,0.12421 z"
         id="path38-7-1-9-6-8-9" /><path
         style="fill:#c2d6d5;fill-opacity:1;stroke-width:0.499999;paint-order:markers fill stroke"
         d="m 103.06183,213.37275 9.52628,5.5 9.53133,-5.50291 -0.87108,-0.50292 -8.66025,5 -8.66206,-5.00104 z"
         id="path67-1" /><path
         style="fill:#80a294;fill-opacity:1;stroke-width:0.499999;paint-order:markers fill stroke"
         d="m 122.11317,213.49999 -0.003,-0.13411 -9.52809,5.50687 10e-6,0.12421 z"
         id="path87" /></g><g
       id="g7"><path
         style="fill:#7cb84f;fill-opacity:1;stroke-width:0.499999;paint-order:markers fill stroke"
         d="m 78.808309,227.49999 11.25833,-6.5 11.258331,6.5 -11.258331,6.5 z"
         id="path30-2-0-0-56" /><path
         style="fill:#8bc652;fill-opacity:1;stroke-width:0.499999;paint-order:markers fill stroke"
         d="m 78.808309,227.49999 v 4 l 11.25833,6.5 v -4 z"
         id="path31-9-6-4-2" /><path
         style="fill:#6aa341;fill-opacity:1;stroke-width:0.499999;paint-order:markers fill stroke"
         d="m 90.066639,237.99999 11.258331,-6.5 v -4 l -11.258331,6.5 z"
         id="path32-1-3-8-9" /><path
         style="fill:#a08665;fill-opacity:1;stroke-width:0.499999;paint-order:markers fill stroke"
         d="m 78.808309,231.49999 v 2 l 11.25833,6.5 v -2 z"
         id="path33-2-2-7-12" /><path
         style="fill:#746e58;fill-opacity:1;stroke-width:0.499999;paint-order:markers fill stroke"
         d="m 101.32497,231.49999 v 2 l -11.258331,6.5 v -2 z"
         id="path34-7-0-1-70" /><path
         style="fill:#b3bcab;fill-opacity:1;stroke-width:0.499999;paint-order:markers fill stroke"
         d="m 80.540349,226.36785 10e-6,0.13214 1.62038,0.93553 0.11167,-0.0677 z"
         id="path55-93" /><path
         style="fill:#b3bcab;fill-opacity:1;stroke-width:0.499999;paint-order:markers fill stroke"
         d="m 80.540359,228.49999 v -0.13214 l 0.86603,0.50793 -1e-5,0.12421 z"
         id="path38-76-6-0" /><path
         style="fill:#b3bcab;fill-opacity:1;stroke-width:0.499999;paint-order:markers fill stroke"
         d="m 80.540359,228.6242 v -0.13214 l 0.86603,0.50793 -1e-5,0.12421 z"
         id="path38-4-5-1-6" /><path
         style="fill:#b3bcab;fill-opacity:1;stroke-width:0.499999;paint-order:markers fill stroke"
         d="m 81.406379,228.99999 v 0.28325"
         id="path39-3-1-8" /><path
         style="fill:#586466;fill-opacity:1;stroke-width:0.499999;paint-order:markers fill stroke"
         d="m 81.406379,229.28324 6.06218,3.5 v -0.28325 l -6.06218,-3.5 z"
         id="path40-4-9-2" /><path
         style="fill:#8d8d8d;fill-opacity:1;stroke-width:0.499999;paint-order:markers fill stroke"
         d="m 80.540359,228.6242 v 0.87579 l 7.79423,4.5 -10e-6,-0.87183 -0.86602,-0.48655 v 0.14163 l -6.06218,-3.50001 v -0.15904 z"
         id="path41-5-4-0" /><path
         style="fill:#647275;fill-opacity:1;stroke:none;stroke-width:0.3;stroke-dasharray:none;stroke-opacity:1;paint-order:normal"
         d="m 87.468563,222.49999 8.660252,5 -8.656836,4.99803 -6.065602,-3.50198 2.59466,-1.49802 c 0,0 -2.594665,-1.49802 -2.59466,-1.49803 8e-6,-1e-5 6.062186,-3.5 6.062186,-3.5 z"
         id="path4" /><path
         style="fill:#80a294;fill-opacity:1;stroke-width:0.499999;paint-order:markers fill stroke"
         d="m 84.004469,227.37578 -1e-5,0.12421 -2.59808,1.5 1e-5,-0.12421 z"
         id="path51-12" /><path
         style="fill:#b3bcab;fill-opacity:1;stroke-width:0.499999;paint-order:markers fill stroke"
         d="m 87.468559,232.51067 v -0.13214 l 0.86603,0.50793 -10e-6,0.12421 z"
         id="path38-76-6-0-6" /><path
         style="fill:#b3bcab;fill-opacity:1;stroke-width:0.499999;paint-order:markers fill stroke"
         d="m 87.468559,232.63488 v -0.13214 l 0.86603,0.50793 -10e-6,0.12421 z"
         id="path38-4-5-1-6-3" /><path
         style="fill:#b3bcab;fill-opacity:1;stroke-width:0.499999;paint-order:markers fill stroke"
         d="m 88.334579,233.01067 v 0.28325"
         id="path39-3-1-8-2" /><path
         style="fill:#b3bcab;fill-opacity:1;stroke:none;stroke-width:0.3;stroke-dasharray:none;stroke-opacity:1;paint-order:normal"
         d="m 87.468563,222.49999 -2e-6,-0.13214 8.660254,5 -0.108008,0.0698 z"
         id="path6" /><path
         style="fill:#c2d6d5;fill-opacity:1;stroke:none;stroke-width:0.3;stroke-dasharray:none;stroke-opacity:1;paint-order:normal"
         d="m 87.468558,232.37853 8.660257,-5.01068 -8.660254,-5 0.866031,-0.5 9.526275,5.5 -9.52628,5.51861 z"
         id="path5" /><path
         style="fill:#80a294;fill-opacity:1;stroke:none;stroke-width:0.3;stroke-dasharray:none;stroke-opacity:1;paint-order:normal"
         d="m 88.334587,232.99999 9.52628,-5.5 -2e-6,-0.13214 -9.526278,5.51861 z"
         id="path7" /><path
         style="fill:#c2d6d5;fill-opacity:1;stroke-width:0.499999;paint-order:markers fill stroke"
         d="m 81.406379,225.86785 2.59809,1.50793 -2.59808,1.5 -0.86603,-0.50793 1.73205,-1 -1.73206,-1 z"
         id="path49-73" /></g></g></svg>
