<?xml version="1.0" encoding="UTF-8" standalone="no"?>
<!-- Created with Inkscape (http://www.inkscape.org/) -->

<svg
   width="22.516647mm"
   height="19.000004mm"
   viewBox="0 0 22.516647 19.000004"
   version="1.1"
   id="svg1"
   xml:space="preserve"
   xmlns="http://www.w3.org/2000/svg"
   xmlns:svg="http://www.w3.org/2000/svg"><defs
     id="defs1" /><g
     id="layer1"
     transform="translate(-123.84163,-194.99998)"><path
       style="fill:#80a294;fill-opacity:1;stroke-width:0.499999;paint-order:markers fill stroke"
       d="m 143.76021,202.86785 0.86603,-0.5 v 0.13214 l -0.86603,0.5 z"
       id="path44-0" /><path
       style="fill:#80a294;fill-opacity:1;stroke-width:0.499999;paint-order:markers fill stroke"
       d="m 143.76021,202.99999 0.86603,-0.5 v 0.13214 l -0.86603,0.5 z"
       id="path44-8-6-88-1" /><path
       style="fill:#b3bcab;fill-opacity:1;stroke-width:0.499999;paint-order:markers fill stroke"
       d="m 143.76022,202.99999 -1e-5,0.27927"
       id="path58-7" /><g
       id="g88"><g
         id="g2"><path
           style="fill:#7cb84f;fill-opacity:1;stroke-width:0.499999;paint-order:markers fill stroke"
           d="m 123.84163,201.49999 11.25833,-6.5 11.25833,6.5 -11.25833,6.5 z"
           id="path30-2-0-0-5" /><path
           style="fill:#647275;fill-opacity:1;stroke-width:0.499999;paint-order:markers fill stroke"
           d="m 126.4397,202.99999 8.66026,-5 8.66025,5 -6.06217,3.5 -2.59808,-1.5 -2.59467,1.49803 z"
           id="path66" /><path
           style="fill:#8bc652;fill-opacity:1;stroke-width:0.499999;paint-order:markers fill stroke"
           d="m 123.84163,201.49999 v 4 l 11.25833,6.5 v -4 z"
           id="path31-9-6-4-9" /><path
           style="fill:#6aa341;fill-opacity:1;stroke-width:0.499999;paint-order:markers fill stroke"
           d="m 135.09996,211.99999 11.25833,-6.5 v -4 l -11.25833,6.5 z"
           id="path32-1-3-8-3" /><path
           style="fill:#a08665;fill-opacity:1;stroke-width:0.499999;paint-order:markers fill stroke"
           d="m 123.84163,205.49999 v 2 l 11.25833,6.5 v -2 z"
           id="path33-2-2-7-5" /><path
           style="fill:#746e58;fill-opacity:1;stroke-width:0.499999;paint-order:markers fill stroke"
           d="m 146.35829,205.49999 v 2 l -11.25833,6.5 v -2 z"
           id="path34-7-0-1-7" /><path
           style="fill:#b3bcab;fill-opacity:1;stroke-width:0.499999;paint-order:markers fill stroke"
           d="m 125.57368,202.49999 v -0.13214 l 0.86603,0.50793 -1e-5,0.12421 z"
           id="path38-76-6-1" /><path
           style="fill:#b3bcab;fill-opacity:1;stroke-width:0.499999;paint-order:markers fill stroke"
           d="m 125.57368,202.6242 v -0.13214 l 0.86603,0.50793 -1e-5,0.12421 z"
           id="path38-4-5-1-99" /><path
           style="fill:#b3bcab;fill-opacity:1;stroke-width:0.499999;paint-order:markers fill stroke"
           d="m 132.5019,206.50397 v -0.13214 l 0.86603,0.50793 -1e-5,0.12421 z"
           id="path38-7-6-0-7" /><path
           style="fill:#b3bcab;fill-opacity:1;stroke-width:0.499999;paint-order:markers fill stroke"
           d="m 132.50189,206.62816 v -0.13214 l 0.86603,0.50795 -2e-5,0.12419 z"
           id="path38-7-1-9-6-8" /><path
           style="fill:#b3bcab;fill-opacity:1;stroke-width:0.499999;paint-order:markers fill stroke"
           d="m 126.4397,202.99999 v 0.28325"
           id="path39-3-1-2" /><path
           style="fill:#b3bcab;fill-opacity:1;stroke-width:0.499999;paint-order:markers fill stroke"
           d="m 132.50188,206.49999 v 0.28325"
           id="path39-6-7-5-5" /><path
           style="fill:#586466;fill-opacity:1;stroke-width:0.499999;paint-order:markers fill stroke"
           d="m 126.4397,203.28324 6.06218,3.5 v -0.28325 l -6.06218,-3.5 z"
           id="path40-4-9-3" /><path
           style="fill:#8d8d8d;fill-opacity:1;stroke-width:0.499999;paint-order:markers fill stroke"
           d="m 125.57368,202.6242 v 0.87579 l 7.79423,4.5 -1e-5,-0.87183 -0.86602,-0.48655 v 0.14163 l -6.06218,-3.50001 v -0.15904 z"
           id="path41-5-4-4" /><path
           style="fill:#80a294;fill-opacity:1;stroke-width:0.499999;paint-order:markers fill stroke"
           d="m 136.83201,206.86785 0.86603,-0.5 v 0.13214 l -0.86603,0.5 z"
           id="path44-8-6-2" /><path
           style="fill:#80a294;fill-opacity:1;stroke-width:0.499999;paint-order:markers fill stroke"
           d="m 136.83201,206.99999 0.86603,-0.5 v 0.13214 l -0.86603,0.5 z"
           id="path44-8-6-8-0" /><path
           style="fill:#c2d6d5;fill-opacity:1;stroke-width:0.499999;paint-order:markers fill stroke"
           d="m 132.5019,206.37183 2.59806,-1.50398 2.59808,1.5 -0.86603,0.5 -1.73205,-1 -1.73203,1.01191"
           id="path50-3" /><path
           style="fill:#80a294;fill-opacity:1;stroke-width:0.499999;paint-order:markers fill stroke"
           d="m 133.36793,206.87976 -2e-5,0.12023 1.73205,-1 v -0.13214 z"
           id="path53-0" /><path
           style="fill:#b3bcab;fill-opacity:1;stroke-width:0.499999;paint-order:markers fill stroke"
           d="m 135.09996,205.86785 v 0.13214 l 1.73205,1 v -0.13214 z"
           id="path56-6" /><path
           style="fill:#4d585a;fill-opacity:1;stroke-width:0.499999;paint-order:markers fill stroke"
           d="m 137.69802,206.77926 2e-5,-0.27927 6.06217,-3.5 v 0.27927 z"
           id="path57-7" /><path
           style="fill:#6a6a6a;fill-opacity:1;stroke-width:0.499999;paint-order:markers fill stroke"
           d="m 136.83201,207.13213 v 0.86786 l 7.79423,-4.5 v -0.86786 l -0.86603,0.5 v 0.14713 l -6.06219,3.5 2e-5,-0.14713 z"
           id="path59-4" /><path
           style="fill:#c2d6d5;fill-opacity:1;stroke-width:0.499999;paint-order:markers fill stroke"
           d="m 125.57368,202.36785 9.52628,-5.5 9.53133,5.50291 -0.87108,0.50292 -8.66025,-5 -8.66206,5.00104 z"
           id="path67" /><path
           style="fill:#80a294;fill-opacity:1;stroke-width:0.499999;paint-order:markers fill stroke"
           d="m 126.43971,202.87578 -1e-5,0.12421 8.66026,-5 v -0.12631 z"
           id="path68" /><path
           style="fill:#b3bcab;fill-opacity:1;stroke-width:0.499999;paint-order:markers fill stroke"
           d="m 135.09996,197.87368 8.66025,4.99417 v 0.13214 l -8.66025,-5 z"
           id="path69" /><path
           style="fill:#80a294;fill-opacity:1;stroke-width:0.499999;paint-order:markers fill stroke"
           d="m 143.76021,202.86785 0.86603,-0.5 v 0.13214 l -0.86603,0.5 z"
           id="path44-8-6-2-9" /><path
           style="fill:#80a294;fill-opacity:1;stroke-width:0.499999;paint-order:markers fill stroke"
           d="m 143.76021,202.99999 0.86603,-0.5 v 0.13214 l -0.86603,0.5 z"
           id="path44-8-6-8-0-2" /></g></g></g></svg>
