<?xml version="1.0" encoding="UTF-8" standalone="no"?>
<!-- Created with Inkscape (http://www.inkscape.org/) -->

<svg
   width="22.516657mm"
   height="19.000004mm"
   viewBox="0 0 22.516657 19.000004"
   version="1.1"
   id="svg1"
   xml:space="preserve"
   xmlns="http://www.w3.org/2000/svg"
   xmlns:svg="http://www.w3.org/2000/svg"><defs
     id="defs1" /><g
     id="layer1"
     transform="translate(-112.5833,-227.49998)"><g
       id="g24"><path
         style="fill:#7cb84f;fill-opacity:1;stroke-width:0.499999;paint-order:markers fill stroke"
         d="m 112.5833,233.99999 11.25833,-6.5 11.25833,6.5 -11.25833,6.5 z"
         id="path30-2-0-0-45" /><path
         style="fill:#8bc652;fill-opacity:1;stroke-width:0.499999;paint-order:markers fill stroke"
         d="m 112.5833,233.99999 v 4 l 11.25833,6.5 v -4 z"
         id="path31-9-6-4-0" /><path
         style="fill:#6aa341;fill-opacity:1;stroke-width:0.499999;paint-order:markers fill stroke"
         d="m 123.84163,244.49999 11.25833,-6.5 v -4 l -11.25833,6.5 z"
         id="path32-1-3-8-36" /><path
         style="fill:#a08665;fill-opacity:1;stroke-width:0.499999;paint-order:markers fill stroke"
         d="m 112.5833,237.99999 v 2 l 11.25833,6.5 v -2 z"
         id="path33-2-2-7-10" /><path
         style="fill:#746e58;fill-opacity:1;stroke-width:0.499999;paint-order:markers fill stroke"
         d="m 135.09996,237.99999 v 2 l -11.25833,6.5 v -2 z"
         id="path34-7-0-1-63" /><path
         style="fill:#647275;fill-opacity:1;stroke-width:0.499999;paint-order:markers fill stroke"
         d="m 126.4397,228.99999 -11.25832,6.5 6.06217,3.5 11.25833,-6.5 z"
         id="path35-6-7-06" /><path
         style="fill:#b3bcab;fill-opacity:1;stroke-width:0.499999;paint-order:markers fill stroke"
         d="m 114.31535,234.99999 v -0.13214 l 0.86603,0.50793 -1e-5,0.12421 z"
         id="path38-76-6-15" /><path
         style="fill:#b3bcab;fill-opacity:1;stroke-width:0.499999;paint-order:markers fill stroke"
         d="m 114.31535,235.1242 v -0.13214 l 0.86603,0.50793 -1e-5,0.12421 z"
         id="path38-4-5-1-5" /><path
         style="fill:#b3bcab;fill-opacity:1;stroke-width:0.499999;paint-order:markers fill stroke"
         d="m 121.24357,239.00397 v -0.13214 l 0.86603,0.50793 -1e-5,0.12421 z"
         id="path38-7-6-0-4" /><path
         style="fill:#b3bcab;fill-opacity:1;stroke-width:0.499999;paint-order:markers fill stroke"
         d="m 121.24356,239.12816 v -0.13214 l 0.86603,0.50795 -2e-5,0.12419 z"
         id="path38-7-1-9-6-7" /><path
         style="fill:#b3bcab;fill-opacity:1;stroke-width:0.499999;paint-order:markers fill stroke"
         d="m 115.18137,235.49999 v 0.28325"
         id="path39-3-1-6" /><path
         style="fill:#b3bcab;fill-opacity:1;stroke-width:0.499999;paint-order:markers fill stroke"
         d="m 121.24355,238.99999 v 0.28325"
         id="path39-6-7-5-56" /><path
         style="fill:#586466;fill-opacity:1;stroke-width:0.499999;paint-order:markers fill stroke"
         d="m 115.18137,235.78324 6.06218,3.5 v -0.28325 l -6.06218,-3.5 z"
         id="path40-4-9-9" /><path
         style="fill:#8d8d8d;fill-opacity:1;stroke-width:0.499999;paint-order:markers fill stroke"
         d="m 114.31535,235.1242 v 0.87579 l 7.79423,4.5 -10e-6,-0.87183 -0.86602,-0.48655 v 0.14163 l -6.06218,-3.50001 v -0.15904 z"
         id="path41-5-4-37" /><path
         style="fill:#647275;fill-opacity:1;stroke-width:0.499999;paint-order:markers fill stroke"
         d="m 126.43971,238.99999 -8.66024,-5.12421 6.06218,-3.5 8.66024,5.12421 z"
         id="path42-4" /><path
         style="fill:#80a294;fill-opacity:1;stroke-width:0.499999;paint-order:markers fill stroke"
         d="m 132.50188,235.36785 0.86603,-0.5 v 0.13214 l -0.86603,0.5 z"
         id="path44-5" /><path
         style="fill:#80a294;fill-opacity:1;stroke-width:0.499999;paint-order:markers fill stroke"
         d="m 125.57368,239.36785 0.86603,-0.5 v 0.13214 l -0.86603,0.5 z"
         id="path44-8-6-25" /><path
         style="fill:#80a294;fill-opacity:1;stroke-width:0.499999;paint-order:markers fill stroke"
         d="m 125.57368,239.49999 0.86603,-0.5 v 0.13214 l -0.86603,0.5 z"
         id="path44-8-6-8-4" /><path
         style="fill:#80a294;fill-opacity:1;stroke-width:0.499999;paint-order:markers fill stroke"
         d="m 132.50188,235.49999 0.86603,-0.5 v 0.13214 l -0.86603,0.5 z"
         id="path44-8-6-88-7" /><path
         style="fill:#c2d6d5;fill-opacity:1;stroke-width:0.499999;paint-order:markers fill stroke"
         d="m 132.50188,232.36785 -2.59807,1.5 2.59807,1.5 c 0,0 0.86603,-0.5 0.86603,-0.5 l -1.73205,-1 1.73205,-0.99207 z"
         id="path45-4" /><path
         style="fill:#b3bcab;fill-opacity:1;stroke-width:0.499999;paint-order:markers fill stroke"
         d="m 129.9038,233.99999 c 0,0 1e-5,-0.13214 1e-5,-0.13214 l 2.59807,1.5 v 0.13214 z"
         id="path46-4" /><path
         style="fill:#80a294;fill-opacity:1;stroke-width:0.499999;paint-order:markers fill stroke"
         d="m 133.36791,232.87578 v 0.12421 l -1.60176,0.94308 -0.13029,-0.0752 z"
         id="path47-3" /><path
         style="fill:#c2d6d5;fill-opacity:1;stroke-width:0.499999;paint-order:markers fill stroke"
         d="m 126.43971,228.87578 -8.66025,5 -2.59808,1.5 -0.86603,-0.50793 1.73205,-1 9.52628,-5.5 z"
         id="path49-78" /><path
         style="fill:#c2d6d5;fill-opacity:1;stroke-width:0.499999;paint-order:markers fill stroke"
         d="m 121.24357,238.87183 2.59806,-1.50398 2.59808,1.5 -0.86603,0.5 -1.73205,-1 -1.73203,1.01191"
         id="path50-6" /><path
         style="fill:#80a294;fill-opacity:1;stroke-width:0.499999;paint-order:markers fill stroke"
         d="m 115.18138,235.37578 v 0.12421 l 11.25832,-6.5 1e-5,-0.12421 z"
         id="path52-8" /><path
         style="fill:#80a294;fill-opacity:1;stroke-width:0.499999;paint-order:markers fill stroke"
         d="m 122.1096,239.37976 -2e-5,0.12023 1.73205,-1 v -0.13214 z"
         id="path53-4" /><path
         style="fill:#b3bcab;fill-opacity:1;stroke-width:0.499999;paint-order:markers fill stroke"
         d="m 123.84163,238.36785 v 0.13214 l 1.73205,1 v -0.13214 z"
         id="path56-1" /><path
         style="fill:#4d585a;fill-opacity:1;stroke-width:0.499999;paint-order:markers fill stroke"
         d="m 126.43969,239.27926 2e-5,-0.27927 6.06217,-3.5 v 0.27927 z"
         id="path57-4" /><path
         style="fill:#b3bcab;fill-opacity:1;stroke-width:0.499999;paint-order:markers fill stroke"
         d="m 132.50189,235.49999 -1e-5,0.27927"
         id="path58-9" /><path
         style="fill:#6a6a6a;fill-opacity:1;stroke-width:0.499999;paint-order:markers fill stroke"
         d="m 125.57368,239.63213 v 0.86786 l 7.79423,-4.5 v -0.86786 l -0.86603,0.5 v 0.14713 l -6.06219,3.5 2e-5,-0.14713 z"
         id="path59-2" /></g></g></svg>
