<?xml version="1.0" encoding="UTF-8" standalone="no"?>
<!-- Created with Inkscape (http://www.inkscape.org/) -->

<svg
   width="22.516665mm"
   height="16.999996mm"
   viewBox="0 0 22.516665 16.999996"
   version="1.1"
   id="svg1"
   xml:space="preserve"
   xmlns="http://www.w3.org/2000/svg"
   xmlns:svg="http://www.w3.org/2000/svg"><defs
     id="defs1" /><g
     id="layer1"
     transform="translate(-157.61663,-229.5)"><g
       id="g27"><path
         style="fill:#7cb84f;fill-opacity:1;stroke-width:0.499999;paint-order:markers fill stroke"
         d="m 180.13328,246.99999 11.25833,-6.5 11.25833,6.5 -11.25833,6.5 z"
         id="path30-2-0-0-0" /><path
         style="fill:#8bc652;fill-opacity:1;stroke-width:0.499999;paint-order:markers fill stroke"
         d="m 180.13328,246.99999 v 4 l 11.25833,6.5 v -4 z"
         id="path31-9-6-4-8" /><path
         style="fill:#6aa341;fill-opacity:1;stroke-width:0.499999;paint-order:markers fill stroke"
         d="m 191.39161,257.49999 11.25833,-6.5 v -4 l -11.25833,6.5 z"
         id="path32-1-3-8-85" /><path
         style="fill:#a08665;fill-opacity:1;stroke-width:0.499999;paint-order:markers fill stroke"
         d="m 180.13328,250.99999 v 2 l 11.25833,6.5 v -2 z"
         id="path33-2-2-7-0" /><path
         style="fill:#746e58;fill-opacity:1;stroke-width:0.499999;paint-order:markers fill stroke"
         d="m 202.64994,250.99999 v 2 l -11.25833,6.5 v -2 z"
         id="path34-7-0-1-9" /><path
         style="fill:#647275;fill-opacity:1;stroke-width:0.499999;paint-order:markers fill stroke"
         d="m 193.98968,241.99999 -8.66025,5 6.06218,3.5 8.66025,-5 z"
         id="path35-6-7-3" /><path
         style="fill:#647275;fill-opacity:1;stroke-width:0.499999;paint-order:markers fill stroke"
         d="m 193.98968,251.99999 -11.25833,-6.5 6.06218,-3.5 11.25833,6.5 z"
         id="path42-0" /><path
         style="fill:#80a294;fill-opacity:1;stroke-width:0.499999;paint-order:markers fill stroke"
         d="m 200.05186,248.36785 0.86603,-0.5 v 0.13214 l -0.86603,0.5 z"
         id="path44-4" /><path
         style="fill:#80a294;fill-opacity:1;stroke-width:0.499999;paint-order:markers fill stroke"
         d="m 193.12366,252.36785 0.86603,-0.5 v 0.13214 l -0.86603,0.5 z"
         id="path44-8-6-44" /><path
         style="fill:#80a294;fill-opacity:1;stroke-width:0.499999;paint-order:markers fill stroke"
         d="m 193.12366,252.49999 0.86603,-0.5 v 0.13214 l -0.86603,0.5 z"
         id="path44-8-6-8-47" /><path
         style="fill:#80a294;fill-opacity:1;stroke-width:0.499999;paint-order:markers fill stroke"
         d="m 200.05186,248.49999 0.86603,-0.5 v 0.13214 l -0.86603,0.5 z"
         id="path44-8-6-88-63" /><path
         style="fill:#c2d6d5;fill-opacity:1;stroke-width:0.499999;paint-order:markers fill stroke"
         d="m 200.05186,245.36785 -2.59807,1.5 2.59807,1.5 c 0,0 0.86603,-0.5 0.86603,-0.5 l -1.73205,-1 1.73205,-0.99207 z"
         id="path45-1" /><path
         style="fill:#b3bcab;fill-opacity:1;stroke-width:0.499999;paint-order:markers fill stroke"
         d="m 197.45378,246.99999 c 0,0 1e-5,-0.13214 1e-5,-0.13214 l 2.59807,1.5 v 0.13214 z"
         id="path46-7" /><path
         style="fill:#80a294;fill-opacity:1;stroke-width:0.499999;paint-order:markers fill stroke"
         d="m 200.91789,245.87578 v 0.12421 l -1.60176,0.94308 -0.13029,-0.0752 z"
         id="path47-5" /><path
         style="fill:#c2d6d5;fill-opacity:1;stroke-width:0.499999;paint-order:markers fill stroke"
         d="m 188.79353,241.86785 2.59808,1.50793 2.59808,-1.5 -0.86602,-0.50793 -1.73205,1 -1.73205,-1 z"
         id="path48-9" /><path
         style="fill:#c2d6d5;fill-opacity:1;stroke-width:0.499999;paint-order:markers fill stroke"
         d="m 182.73135,245.36785 8.66026,5 2.59808,1.5 -0.86602,0.5 -1.73205,-1 -9.5263,-5.5"
         id="path50-2" /><path
         style="fill:#80a294;fill-opacity:1;stroke-width:0.499999;paint-order:markers fill stroke"
         d="m 191.39161,243.37578 v 0.12421 l 2.59807,-1.5 1e-5,-0.12421 z"
         id="path52-7" /><path
         style="fill:#b3bcab;fill-opacity:1;stroke-width:0.499999;paint-order:markers fill stroke"
         d="m 191.39161,243.49999 v -0.12421 l -2.59808,-1.50793 v 0.13214 z"
         id="path54-5" /><path
         style="fill:#b3bcab;fill-opacity:1;stroke-width:0.499999;paint-order:markers fill stroke"
         d="m 181.86532,245.86785 1e-5,0.13214 11.25833,6.5 v -0.13214 z"
         id="path56-7" /><path
         style="fill:#4d585a;fill-opacity:1;stroke-width:0.499999;paint-order:markers fill stroke"
         d="m 193.98967,252.27926 2e-5,-0.27927 6.06217,-3.5 v 0.27927 z"
         id="path57-41" /><path
         style="fill:#b3bcab;fill-opacity:1;stroke-width:0.499999;paint-order:markers fill stroke"
         d="m 200.05187,248.49999 -1e-5,0.27927"
         id="path58-8" /><path
         style="fill:#6a6a6a;fill-opacity:1;stroke-width:0.499999;paint-order:markers fill stroke"
         d="m 193.12366,252.63213 v 0.86786 l 7.79423,-4.5 v -0.86786 l -0.86603,0.5 v 0.14713 l -6.06219,3.5 2e-5,-0.14713 z"
         id="path59-5" /></g><g
       id="g83-5-5"
       transform="translate(123.84163,-6.4999961)"><path
         style="fill:#a08665;fill-opacity:1;stroke-width:0.499999;paint-order:markers fill stroke"
         d="m 56.291651,231.49999 v 2 l 11.25833,6.5 v -2 z"
         id="path33-2-2-1-0-4-1" /><path
         style="fill:#746e58;fill-opacity:1;stroke-width:0.499999;paint-order:markers fill stroke"
         d="m 78.808311,231.49999 v 2 l -11.25833,6.5 v -2 z"
         id="path34-7-0-5-22-9-0" /><path
         style="fill:#69cce9;fill-opacity:1;stroke-width:0.499999;paint-order:markers fill stroke"
         d="m 56.29165,229.49999 h 22.51666 l -11.25833,6.5 z"
         id="path72-8-8" /><path
         style="fill:#71ac37;fill-opacity:1;stroke-width:0.499999;paint-order:markers fill stroke"
         d="m 67.54998,220.99999 -11.25833,8.5 h 22.51666 z"
         id="path73-3-7" /><path
         style="fill:#d9e0af;fill-opacity:1;stroke-width:0.499999;paint-order:markers fill stroke"
         d="m 60.043111,226.66765 h 15.013736 l 3.751463,2.83234 H 56.291655 Z"
         id="path74-8-6" /><path
         style="fill:#5cb1d1;fill-opacity:1;stroke-width:0.499999;paint-order:markers fill stroke"
         d="m 56.29165,229.49999 v 2 l 11.25833,6.5 v -2 z"
         id="path75-5-3" /><path
         style="fill:#4696ad;fill-opacity:1;stroke-width:0.499999;paint-order:markers fill stroke"
         d="m 67.54998,235.99999 11.258328,-6.5 2e-6,2 -11.25833,6.5 z"
         id="path76-2-5" /></g><g
       id="g1"><path
         style="fill:#a08665;fill-opacity:1;stroke-width:0.499999;paint-order:markers fill stroke"
         d="m 157.61662,237.99999 v 2 l 11.25833,6.5 v -2 z"
         id="path33-2-2-1-0-4-1-9" /><path
         style="fill:#746e58;fill-opacity:1;stroke-width:0.499999;paint-order:markers fill stroke"
         d="m 180.13328,237.99999 v 2 l -11.25833,6.5 v -2 z"
         id="path34-7-0-5-22-9-0-4" /><path
         style="fill:#69cce9;fill-opacity:1;stroke-width:0.499999;paint-order:markers fill stroke"
         d="m 157.61662,235.99999 11.25833,-6.5 11.25833,6.5 -11.25833,6.5 z"
         id="path72-8-8-8" /><path
         style="fill:#5cb1d1;fill-opacity:1;stroke-width:0.499999;paint-order:markers fill stroke"
         d="m 157.61662,235.99999 v 2 l 11.25833,6.5 v -2 z"
         id="path75-5-3-9" /><path
         style="fill:#4696ad;fill-opacity:1;stroke-width:0.499999;paint-order:markers fill stroke"
         d="m 168.87495,242.49999 11.25833,-6.5 v 2 l -11.25833,6.5 z"
         id="path76-2-5-3" /></g></g></svg>
